<svg width="24" height="24" viewBox="0 0 24 24" fill="none" xmlns="http://www.w3.org/2000/svg">
<path d="M4.30773 20.5C3.8026 20.5 3.37503 20.325 3.02503 19.975C2.67503 19.625 2.50003 19.1974 2.50003 18.6923V8.30773C2.50003 7.80259 2.67503 7.37503 3.02503 7.02503C3.37503 6.67503 3.8026 6.50003 4.30773 6.50003H8.50003V4.80775C8.50003 4.30263 8.67503 3.87508 9.02503 3.52508C9.37503 3.17508 9.8026 3.00008 10.3077 3.00008H13.6923C14.1974 3.00008 14.625 3.17508 14.975 3.52508C15.325 3.87508 15.5 4.30263 15.5 4.80775V6.50003H19.6923C20.1974 6.50003 20.625 6.67503 20.975 7.02503C21.325 7.37503 21.5 7.80259 21.5 8.30773V18.6923C21.5 19.1974 21.325 19.625 20.975 19.975C20.625 20.325 20.1974 20.5 19.6923 20.5H4.30773ZM4.30773 19H19.6923C19.7692 19 19.8397 18.968 19.9039 18.9039C19.968 18.8397 20 18.7692 20 18.6923V8.30773C20 8.23079 19.968 8.16027 19.9039 8.09615C19.8397 8.03205 19.7692 8 19.6923 8H4.30773C4.2308 8 4.16027 8.03205 4.09616 8.09615C4.03206 8.16027 4.00001 8.23079 4.00001 8.30773V18.6923C4.00001 18.7692 4.03206 18.8397 4.09616 18.9039C4.16027 18.968 4.2308 19 4.30773 19ZM10 6.50003H14V4.80775C14 4.73082 13.968 4.6603 13.9039 4.5962C13.8397 4.53208 13.7692 4.50003 13.6923 4.50003H10.3077C10.2308 4.50003 10.1603 4.53208 10.0962 4.5962C10.0321 4.6603 10 4.73082 10 4.80775V6.50003Z" fill="#1DA1F2"/>
</svg>
